<?xml version="1.0" encoding="UTF-8"?>
<svg width="240px" height="180px" viewBox="0 0 240 180" version="1.1" xmlns="http://www.w3.org/2000/svg" xmlns:xlink="http://www.w3.org/1999/xlink">
    <title>No Image Available</title>
    <g stroke="none" stroke-width="1" fill="none" fill-rule="evenodd">
        <rect fill="#F3F4F6" x="0" y="0" width="240" height="180"></rect>
        <g transform="translate(70.000000, 51.000000)">
            <path d="M50,78 C77.6142375,78 100,60.5685425 100,39 C100,17.4314575 77.6142375,0 50,0 C22.3857625,0 0,17.4314575 0,39 C0,60.5685425 22.3857625,78 50,78 Z" fill="#E5E7EB"></path>
            <path d="M50,68 C72.09139,68 90,55.5685425 90,40 C90,24.4314575 72.09139,12 50,12 C27.90861,12 10,24.4314575 10,40 C10,55.5685425 27.90861,68 50,68 Z" fill="#D1D5DB"></path>
            <path d="M41,44.9230769 L41,31.0769231 C41,28.2711077 43.5596154,26 46.6153846,26 L53.3846154,26 C56.4403846,26 59,28.2711077 59,31.0769231 L59,44.9230769 C59,47.7288923 56.4403846,50 53.3846154,50 L46.6153846,50 C43.5596154,50 41,47.7288923 41,44.9230769 Z" fill="#9CA3AF"></path>
            <path d="M35,64 L35,56 C35,53.2385763 37.2385763,51 40,51 L60,51 C62.7614237,51 65,53.2385763 65,56 L65,64 L35,64 Z" fill="#9CA3AF"></path>
        </g>
        <text font-family="Arial" font-size="12" font-weight="normal" fill="#6B7280">
            <tspan x="68" y="146">No Image Available</tspan>
        </text>
    </g>
</svg>